<?xml version="1.0" encoding="utf-8"?>
<!-- Generator: Adobe Illustrator 16.0.0, SVG Export Plug-In . SVG Version: 6.00 Build 0)  -->
<!DOCTYPE svg PUBLIC "-//W3C//DTD SVG 1.1//EN" "http://www.w3.org/Graphics/SVG/1.1/DTD/svg11.dtd">
<svg version="1.1" id="Layer_1" xmlns="http://www.w3.org/2000/svg" xmlns:xlink="http://www.w3.org/1999/xlink" x="0px" y="0px"
	 width="247.226px" height="53px" viewBox="0 0 247.226 53" enable-background="new 0 0 247.226 53" xml:space="preserve">
<g>
	<g>
		<path fill="#1E437B" d="M9.72,34.584V17.191H4.952v-3.958l4.768-1.619l1.597-6.549C5.521,9.069,1.72,15.755,1.72,23.331
			c0,7.601,3.824,14.306,9.649,18.306c-0.582-0.813-1.002-1.771-1.246-2.885C9.854,37.513,9.72,36.123,9.72,34.584z"/>
		<path fill="#1E437B" d="M23.914,1.14c-3.377,0-6.577,0.759-9.442,2.107h3.045v8.366h7.946l-0.721,5.577h-7.227v16.522
			c0,0.92,0.064,1.688,0.194,2.309c0.131,0.62,0.315,1.119,0.555,1.5c0.24,0.381,0.541,0.649,0.899,0.811
			c0.359,0.16,0.771,0.24,1.229,0.24c0.642,0,1.365-0.074,2.175-0.227c0.811-0.151,1.715-0.415,2.715-0.795l1.799,3.811
			c-1.439,1.1-2.854,1.918-4.242,2.459c-1.391,0.539-2.744,0.81-4.064,0.81c-0.433,0-0.846-0.015-1.242-0.042
			c2.021,0.605,4.162,0.935,6.381,0.935c12.256,0,22.189-9.935,22.189-22.19C46.104,11.078,36.169,1.14,23.914,1.14z"/>
	</g>
	<g>
		<path fill="#1E437B" d="M69.894,43.362c-0.446,0.59-0.989,1.069-1.627,1.438c-0.638,0.367-1.473,0.552-2.504,0.552
			c-1.333,0-2.403-0.474-3.216-1.419c-0.811-0.946-1.217-2.28-1.217-4.004c0-1.502,0.367-2.727,1.104-3.673s1.814-1.419,3.234-1.419
			c1.201,0,2.15,0.33,2.849,0.99c0.699,0.66,1.091,1.58,1.179,2.763c0.037,0.446,0.047,0.915,0.028,1.405h-6.827
			c0,1.125,0.258,2.092,0.773,2.897c0.515,0.81,1.219,1.212,2.111,1.212c0.647,0,1.213-0.135,1.697-0.404
			c0.483-0.271,0.932-0.672,1.34-1.207L69.894,43.362z M65.65,36.005c-0.887,0-1.557,0.304-2.01,0.909
			c-0.451,0.605-0.693,1.295-0.727,2.062h5.291c-0.025-0.812-0.228-1.509-0.604-2.094S66.574,36.005,65.65,36.005z"/>
		<path fill="#1E437B" d="M80.773,36.306c0-0.407-0.029-0.846-0.086-1.311h1.443c0.057,0.274,0.094,0.578,0.113,0.904
			c0.434-0.283,0.963-0.531,1.588-0.744c0.627-0.215,1.25-0.32,1.873-0.32c0.961,0,1.724,0.279,2.287,0.839
			c0.562,0.561,0.844,1.354,0.844,2.386v7.12h-1.49v-6.997c0-0.608-0.16-1.116-0.48-1.522c-0.32-0.404-0.772-0.606-1.357-0.606
			s-1.163,0.088-1.735,0.266c-0.571,0.176-1.075,0.4-1.509,0.678v8.187h-1.49V36.306L80.773,36.306z"/>
		<path fill="#1E437B" d="M108.447,36.23c-0.252-0.006-0.483,0.009-0.697,0.039c-0.215,0.031-0.424,0.078-0.633,0.142
			c0.158,0.24,0.291,0.513,0.402,0.815c0.109,0.306,0.164,0.661,0.164,1.07c0,0.615-0.107,1.148-0.32,1.598
			c-0.215,0.449-0.5,0.82-0.856,1.113c-0.358,0.292-0.771,0.51-1.236,0.65c-0.465,0.142-0.948,0.213-1.452,0.213
			c-0.427,0-0.869-0.055-1.328-0.16c-0.103,0.012-0.23,0.047-0.388,0.104c-0.157,0.057-0.312,0.131-0.457,0.228
			c-0.147,0.094-0.274,0.202-0.383,0.323c-0.106,0.123-0.16,0.258-0.16,0.4c0,0.163,0.109,0.292,0.33,0.389
			c0.222,0.094,0.511,0.174,0.867,0.238c0.358,0.065,0.994,0.162,1.905,0.288c0.962,0.156,1.671,0.302,2.125,0.431
			c0.457,0.129,0.863,0.299,1.222,0.515c0.358,0.213,0.647,0.476,0.869,0.786c0.219,0.312,0.33,0.692,0.33,1.146
			c0,0.435-0.082,0.81-0.246,1.122c-0.164,0.313-0.382,0.583-0.654,0.809c-0.272,0.223-0.59,0.403-0.948,0.547
			c-0.357,0.141-0.734,0.252-1.132,0.334c-0.396,0.082-0.797,0.137-1.202,0.166c-0.404,0.025-0.791,0.041-1.154,0.041
			c-0.578,0-1.108-0.049-1.59-0.15c-0.48-0.1-0.895-0.256-1.239-0.467c-0.347-0.211-0.616-0.479-0.812-0.801
			c-0.195-0.324-0.293-0.709-0.293-1.155c0-0.239,0.043-0.478,0.129-0.712c0.084-0.236,0.2-0.461,0.348-0.676
			c0.147-0.213,0.318-0.41,0.51-0.595c0.191-0.183,0.395-0.346,0.607-0.489c-0.17-0.082-0.336-0.168-0.5-0.261
			c-0.162-0.091-0.31-0.192-0.438-0.312c-0.129-0.115-0.234-0.251-0.316-0.405c-0.08-0.151-0.121-0.335-0.121-0.542
			c0-0.228,0.066-0.435,0.203-0.623c0.135-0.188,0.301-0.355,0.498-0.509c0.199-0.151,0.408-0.276,0.629-0.377
			c0.219-0.102,0.414-0.174,0.584-0.217c-0.528-0.303-0.928-0.688-1.197-1.155c-0.271-0.467-0.405-1.056-0.405-1.759
			c0-0.572,0.114-1.08,0.344-1.522c0.229-0.441,0.529-0.812,0.9-1.107c0.371-0.295,0.796-0.521,1.272-0.674
			c0.479-0.154,0.965-0.23,1.463-0.23c0.433,0,0.867,0.062,1.301,0.179c0.435,0.12,0.839,0.301,1.218,0.538
			c0.489-0.188,0.965-0.319,1.428-0.396c0.464-0.075,0.9-0.112,1.316-0.112l-0.171,1.207L108.447,36.23z M101.762,44.765
			c-0.283,0.31-0.502,0.616-0.654,0.924c-0.154,0.31-0.231,0.607-0.231,0.896c0,0.383,0.081,0.699,0.245,0.947
			c0.162,0.248,0.373,0.443,0.632,0.59c0.258,0.145,0.547,0.244,0.866,0.302c0.322,0.059,0.644,0.085,0.963,0.085
			c0.177,0,0.389-0.012,0.638-0.033c0.248-0.021,0.506-0.059,0.772-0.106c0.267-0.051,0.531-0.118,0.791-0.203
			c0.263-0.086,0.496-0.19,0.703-0.315c0.207-0.126,0.375-0.273,0.504-0.447s0.193-0.371,0.193-0.6c0-0.222-0.066-0.416-0.203-0.59
			c-0.135-0.172-0.314-0.324-0.537-0.457c-0.223-0.132-0.486-0.252-0.791-0.357c-0.307-0.105-0.826-0.229-1.562-0.367
			c-0.49-0.076-0.872-0.127-1.146-0.155c-0.274-0.028-0.515-0.05-0.723-0.065C102.015,44.796,101.863,44.78,101.762,44.765z
			 M103.959,40.908c0.389,0,0.721-0.064,0.994-0.193c0.272-0.129,0.498-0.312,0.676-0.551c0.176-0.239,0.303-0.525,0.381-0.858
			s0.117-0.704,0.117-1.111c0-0.31-0.043-0.604-0.131-0.893s-0.223-0.536-0.4-0.75c-0.18-0.214-0.408-0.385-0.684-0.515
			c-0.277-0.129-0.604-0.192-0.981-0.192c-0.459,0-0.839,0.073-1.142,0.223c-0.301,0.146-0.543,0.342-0.727,0.579
			c-0.183,0.238-0.312,0.511-0.387,0.812c-0.075,0.303-0.113,0.607-0.113,0.916c0,0.312,0.049,0.621,0.146,0.924
			c0.097,0.302,0.244,0.572,0.441,0.812c0.199,0.236,0.447,0.432,0.746,0.578C103.197,40.835,103.551,40.908,103.959,40.908z"/>
		<path fill="#1E437B" d="M118.988,31.696c0-0.228,0.08-0.435,0.244-0.623s0.381-0.281,0.65-0.281c0.264,0,0.477,0.095,0.637,0.281
			c0.16,0.188,0.24,0.396,0.24,0.623c0,0.258-0.088,0.474-0.264,0.646s-0.381,0.259-0.613,0.259c-0.238,0-0.447-0.087-0.627-0.259
			C119.076,32.168,118.988,31.953,118.988,31.696z M119.139,34.996h1.49V45.18h-1.49V34.996z"/>
		<path fill="#1E437B" d="M132.016,36.306c0-0.407-0.025-0.846-0.084-1.311h1.441c0.059,0.274,0.096,0.578,0.113,0.904
			c0.436-0.283,0.963-0.531,1.588-0.744c0.627-0.215,1.25-0.32,1.873-0.32c0.961,0,1.725,0.279,2.287,0.839
			c0.562,0.561,0.844,1.354,0.844,2.386v7.12h-1.488v-6.997c0-0.608-0.16-1.116-0.479-1.522c-0.322-0.404-0.773-0.606-1.359-0.606
			c-0.584,0-1.162,0.088-1.734,0.266c-0.572,0.176-1.076,0.4-1.51,0.678v8.187h-1.49L132.016,36.306L132.016,36.306z"/>
		<path fill="#1E437B" d="M159.438,43.362c-0.445,0.59-0.986,1.069-1.627,1.438c-0.639,0.367-1.473,0.552-2.504,0.552
			c-1.332,0-2.402-0.474-3.215-1.419c-0.812-0.946-1.219-2.28-1.219-4.004c0-1.502,0.367-2.727,1.104-3.673
			c0.734-0.946,1.812-1.419,3.234-1.419c1.198,0,2.149,0.33,2.848,0.99c0.699,0.66,1.091,1.58,1.179,2.763
			c0.039,0.446,0.049,0.915,0.028,1.405h-6.828c0,1.125,0.259,2.092,0.773,2.897c0.514,0.807,1.221,1.212,2.112,1.212
			c0.646,0,1.213-0.135,1.696-0.404c0.484-0.271,0.931-0.672,1.339-1.207L159.438,43.362z M155.195,36.005
			c-0.889,0-1.559,0.304-2.01,0.909s-0.693,1.295-0.727,2.062h5.289c-0.023-0.812-0.227-1.509-0.604-2.094
			S156.115,36.005,155.195,36.005z"/>
		<path fill="#1E437B" d="M178.418,43.362c-0.447,0.59-0.99,1.069-1.629,1.438c-0.639,0.367-1.473,0.552-2.504,0.552
			c-1.334,0-2.402-0.474-3.217-1.419c-0.811-0.946-1.217-2.28-1.217-4.004c0-1.502,0.369-2.727,1.104-3.673
			c0.736-0.946,1.814-1.419,3.234-1.419c1.201,0,2.15,0.33,2.85,0.99c0.697,0.66,1.092,1.58,1.18,2.763
			c0.037,0.446,0.047,0.915,0.027,1.405h-6.826c0,1.125,0.258,2.092,0.771,2.897c0.516,0.808,1.219,1.212,2.111,1.212
			c0.648,0,1.215-0.135,1.699-0.404c0.482-0.271,0.93-0.672,1.338-1.207L178.418,43.362z M174.174,36.005
			c-0.889,0-1.559,0.304-2.012,0.909c-0.449,0.605-0.691,1.295-0.725,2.062h5.289c-0.025-0.812-0.227-1.509-0.604-2.094
			S175.098,36.005,174.174,36.005z"/>
		<path fill="#1E437B" d="M190.531,34.996c0.045,0.162,0.078,0.382,0.101,0.654c0.021,0.272,0.032,0.631,0.032,1.069
			c0.484-0.579,1.052-1.038,1.701-1.377c0.651-0.339,1.328-0.509,2.033-0.509c0.081,0,0.168,0.006,0.26,0.019
			c0.09,0.015,0.158,0.024,0.201,0.038l-0.32,1.557c-0.188-0.051-0.428-0.074-0.717-0.074c-0.836,0-1.528,0.188-2.084,0.563
			c-0.554,0.38-0.908,0.748-1.063,1.112v7.13h-1.49V36.4c-0.014-0.812-0.03-1.279-0.057-1.404H190.531L190.531,34.996z"/>
		<path fill="#1E437B" d="M204.598,31.696c0-0.228,0.082-0.435,0.246-0.623c0.162-0.188,0.381-0.281,0.648-0.281
			c0.266,0,0.479,0.095,0.639,0.281c0.158,0.188,0.238,0.396,0.238,0.623c0,0.258-0.088,0.474-0.264,0.646s-0.381,0.259-0.613,0.259
			c-0.236,0-0.445-0.087-0.627-0.259C204.688,32.168,204.598,31.953,204.598,31.696z M204.748,34.996h1.488V45.18h-1.488V34.996z"/>
		<path fill="#1E437B" d="M217.627,36.306c0-0.407-0.027-0.846-0.084-1.311h1.441c0.059,0.274,0.094,0.578,0.113,0.904
			c0.434-0.283,0.963-0.531,1.588-0.744c0.627-0.215,1.25-0.32,1.873-0.32c0.961,0,1.723,0.279,2.287,0.839
			c0.562,0.561,0.844,1.354,0.844,2.386v7.12h-1.49v-6.997c0-0.608-0.16-1.116-0.479-1.522c-0.32-0.404-0.771-0.606-1.357-0.606
			c-0.584,0-1.162,0.088-1.734,0.266c-0.572,0.176-1.076,0.4-1.51,0.678v8.187h-1.49L217.627,36.306L217.627,36.306z"/>
		<path fill="#1E437B" d="M245.303,36.23c-0.252-0.006-0.482,0.009-0.695,0.039c-0.217,0.031-0.428,0.078-0.635,0.142
			c0.158,0.24,0.291,0.513,0.398,0.815c0.111,0.306,0.166,0.661,0.166,1.07c0,0.615-0.105,1.148-0.318,1.598
			c-0.215,0.449-0.5,0.82-0.857,1.113c-0.357,0.292-0.771,0.51-1.234,0.65c-0.465,0.142-0.949,0.213-1.453,0.213
			c-0.428,0-0.871-0.055-1.33-0.16c-0.1,0.012-0.229,0.047-0.387,0.104c-0.156,0.057-0.311,0.131-0.457,0.228
			c-0.146,0.094-0.275,0.202-0.381,0.323c-0.107,0.123-0.16,0.258-0.16,0.4c0,0.163,0.109,0.292,0.33,0.389
			c0.219,0.094,0.508,0.174,0.867,0.238c0.355,0.065,0.99,0.162,1.902,0.288c0.963,0.156,1.672,0.302,2.127,0.431
			s0.863,0.299,1.223,0.515c0.357,0.213,0.646,0.476,0.867,0.786c0.221,0.312,0.328,0.692,0.328,1.146
			c0,0.435-0.078,0.81-0.242,1.122c-0.164,0.313-0.385,0.583-0.656,0.809c-0.273,0.223-0.588,0.403-0.947,0.547
			c-0.357,0.141-0.736,0.252-1.131,0.334c-0.396,0.082-0.797,0.137-1.203,0.166c-0.406,0.025-0.791,0.041-1.154,0.041
			c-0.58,0-1.109-0.049-1.59-0.15c-0.48-0.1-0.895-0.256-1.24-0.467c-0.345-0.211-0.615-0.479-0.811-0.801
			c-0.195-0.324-0.293-0.709-0.293-1.155c0-0.239,0.043-0.478,0.127-0.712c0.086-0.236,0.201-0.461,0.35-0.676
			c0.149-0.213,0.316-0.41,0.51-0.595c0.191-0.183,0.396-0.346,0.607-0.489c-0.17-0.082-0.336-0.168-0.5-0.261
			c-0.164-0.091-0.309-0.192-0.438-0.312c-0.129-0.115-0.234-0.251-0.316-0.405c-0.082-0.151-0.123-0.335-0.123-0.542
			c0-0.228,0.068-0.435,0.203-0.623c0.135-0.188,0.303-0.355,0.5-0.509s0.406-0.276,0.627-0.377
			c0.221-0.102,0.414-0.174,0.584-0.217c-0.527-0.303-0.926-0.688-1.197-1.155c-0.27-0.47-0.404-1.056-0.404-1.759
			c0-0.572,0.113-1.08,0.346-1.522c0.229-0.441,0.527-0.812,0.898-1.107c0.371-0.295,0.795-0.521,1.273-0.674
			c0.477-0.154,0.965-0.23,1.461-0.23c0.434,0,0.867,0.062,1.301,0.179c0.436,0.12,0.84,0.301,1.217,0.538
			c0.49-0.188,0.967-0.319,1.432-0.396c0.461-0.075,0.898-0.112,1.312-0.112l-0.17,1.207L245.303,36.23z M238.615,44.765
			c-0.281,0.31-0.502,0.616-0.654,0.924c-0.154,0.31-0.23,0.607-0.23,0.896c0,0.383,0.082,0.699,0.244,0.947
			c0.164,0.248,0.375,0.443,0.635,0.59c0.258,0.145,0.547,0.244,0.865,0.302c0.32,0.059,0.643,0.085,0.961,0.085
			c0.18,0,0.391-0.012,0.639-0.033c0.25-0.021,0.506-0.059,0.771-0.106s0.531-0.118,0.793-0.203c0.262-0.086,0.494-0.19,0.703-0.315
			c0.207-0.126,0.375-0.273,0.504-0.447s0.191-0.371,0.191-0.6c0-0.222-0.066-0.416-0.201-0.59
			c-0.137-0.172-0.314-0.324-0.537-0.457c-0.225-0.132-0.488-0.252-0.793-0.357c-0.307-0.105-0.824-0.229-1.562-0.367
			c-0.49-0.076-0.871-0.127-1.145-0.155s-0.516-0.05-0.723-0.065C238.869,44.796,238.717,44.78,238.615,44.765z M240.816,40.908
			c0.389,0,0.721-0.064,0.992-0.193s0.498-0.312,0.676-0.551c0.176-0.239,0.305-0.525,0.383-0.858s0.117-0.704,0.117-1.111
			c0-0.31-0.043-0.604-0.133-0.893c-0.09-0.286-0.223-0.536-0.4-0.75s-0.406-0.385-0.686-0.515
			c-0.273-0.129-0.604-0.192-0.979-0.192c-0.459,0-0.84,0.073-1.143,0.223c-0.303,0.146-0.545,0.342-0.727,0.579
			c-0.184,0.238-0.312,0.511-0.389,0.812c-0.074,0.303-0.111,0.607-0.111,0.916c0,0.312,0.049,0.621,0.146,0.924
			c0.098,0.302,0.245,0.572,0.442,0.812c0.196,0.236,0.446,0.432,0.744,0.578C240.051,40.835,240.406,40.908,240.816,40.908z"/>
	</g>
	<g>
		<path fill="#1E437B" d="M59.43,7.28l2.834-0.963l1.213-4.974h3.422v4.974h4.723l-0.428,3.314h-4.295v9.821
			c0,0.546,0.038,1.004,0.115,1.371c0.077,0.369,0.188,0.666,0.33,0.892c0.143,0.227,0.32,0.387,0.535,0.481
			c0.213,0.096,0.457,0.143,0.73,0.143c0.379,0,0.811-0.045,1.291-0.134c0.481-0.089,1.02-0.246,1.612-0.472l1.07,2.264
			c-0.855,0.653-1.697,1.141-2.522,1.461c-0.824,0.32-1.631,0.479-2.414,0.479c-1.07,0-1.949-0.14-2.639-0.419
			c-0.689-0.277-1.239-0.678-1.648-1.193c-0.41-0.518-0.695-1.145-0.855-1.879c-0.16-0.737-0.24-1.562-0.24-2.479V9.631H59.43V7.28
			L59.43,7.28z"/>
		<path fill="#1E437B" d="M92.492,22.375c-0.736,0.785-1.447,1.414-2.131,1.89c-0.683,0.477-1.363,0.841-2.039,1.098
			c-0.679,0.256-1.367,0.424-2.068,0.508s-1.432,0.125-2.191,0.125c-1.641,0-3.046-0.284-4.216-0.854
			c-1.171-0.568-2.128-1.331-2.87-2.28c-0.742-0.951-1.289-2.046-1.639-3.28c-0.352-1.235-0.526-2.52-0.526-3.851
			c0-1.283,0.181-2.511,0.544-3.681c0.361-1.17,0.914-2.201,1.657-3.092c0.742-0.893,1.675-1.605,2.798-2.14
			c1.123-0.535,2.445-0.803,3.967-0.803c1.354,0,2.543,0.185,3.564,0.554c1.021,0.367,1.874,0.896,2.557,1.586
			c0.684,0.688,1.197,1.522,1.543,2.504c0.344,0.979,0.516,2.076,0.516,3.289c0,0.463-0.014,0.94-0.043,1.435
			c-0.03,0.493-0.094,1.007-0.188,1.542H79.695c0,0.56,0.102,1.17,0.303,1.836c0.203,0.665,0.496,1.291,0.884,1.88
			c0.385,0.589,0.862,1.078,1.435,1.472c0.569,0.392,1.225,0.588,1.961,0.588c0.643,0,1.202-0.048,1.685-0.144
			c0.481-0.095,0.927-0.249,1.337-0.464c0.41-0.213,0.802-0.496,1.176-0.846c0.375-0.352,0.775-0.787,1.203-1.312L92.492,22.375z
			 M83.51,9.49c-0.749,0-1.367,0.131-1.854,0.392c-0.488,0.262-0.875,0.606-1.16,1.034c-0.284,0.428-0.486,0.915-0.605,1.462
			s-0.178,1.111-0.178,1.693h7.361c0-0.5-0.035-1.021-0.107-1.562c-0.07-0.54-0.23-1.033-0.48-1.479s-0.608-0.814-1.078-1.105
			C84.938,9.635,84.305,9.49,83.51,9.49z"/>
		<path fill="#1E437B" d="M101.387,6.317c0.25,1.26,0.428,2.543,0.535,3.85c0.225-0.522,0.552-1.033,0.979-1.532
			c0.428-0.499,0.903-0.941,1.426-1.328c0.522-0.386,1.072-0.697,1.649-0.936c0.576-0.237,1.125-0.356,1.647-0.356
			c0.652,0,1.142,0.041,1.462,0.125c0.319,0.083,0.575,0.166,0.766,0.249l-0.998,4.188c-0.379-0.178-0.731-0.3-1.062-0.365
			c-0.325-0.064-0.649-0.098-0.971-0.098c-1.104,0-2.053,0.262-2.842,0.782c-0.791,0.523-1.436,1.214-1.935,2.068l0.036,12.603
			h-4.67V9.56c0-0.201-0.004-0.457-0.01-0.767c-0.007-0.309-0.013-0.624-0.019-0.944s-0.019-0.621-0.035-0.899
			c-0.017-0.279-0.039-0.49-0.062-0.633H101.387z"/>
		<path fill="#1E437B" d="M117.143,6.317c0.25,1.26,0.428,2.543,0.535,3.85c0.225-0.522,0.551-1.033,0.979-1.532
			c0.429-0.499,0.904-0.941,1.426-1.328c0.523-0.386,1.072-0.697,1.65-0.936c0.576-0.237,1.125-0.356,1.648-0.356
			c0.652,0,1.141,0.041,1.461,0.125c0.318,0.083,0.576,0.166,0.768,0.249l-1,4.188c-0.379-0.178-0.731-0.3-1.061-0.365
			c-0.326-0.064-0.65-0.098-0.971-0.098c-1.105,0-2.053,0.262-2.842,0.782c-0.791,0.523-1.437,1.214-1.937,2.068l0.037,12.603
			h-4.671V9.56c0-0.201-0.004-0.457-0.01-0.767c-0.006-0.309-0.012-0.624-0.018-0.944s-0.018-0.621-0.035-0.899
			c-0.017-0.279-0.039-0.49-0.062-0.633H117.143z"/>
		<path fill="#1E437B" d="M128.281,8.936c1.01-0.915,2.211-1.631,3.603-2.146c1.392-0.519,2.853-0.775,4.385-0.775
			c1.033,0,2.025,0.119,2.978,0.356c0.949,0.237,1.793,0.601,2.531,1.087c0.735,0.488,1.323,1.114,1.764,1.881
			c0.438,0.766,0.66,1.672,0.66,2.718v8.592c0,0.415,0.022,0.764,0.069,1.043c0.048,0.278,0.128,0.499,0.24,0.658
			c0.112,0.161,0.26,0.273,0.438,0.339c0.179,0.066,0.397,0.099,0.66,0.099c0.094,0,0.271-0.019,0.532-0.053
			c0.263-0.036,0.513-0.078,0.75-0.125l0.498,2.049c-0.285,0.179-0.576,0.346-0.873,0.5c-0.297,0.152-0.614,0.287-0.953,0.398
			c-0.34,0.113-0.706,0.205-1.104,0.277c-0.397,0.069-0.836,0.106-1.312,0.106c-0.891,0-1.637-0.205-2.235-0.615
			c-0.601-0.409-0.983-0.996-1.149-1.755c-0.498,0.463-1.017,0.85-1.551,1.157c-0.533,0.31-1.072,0.554-1.611,0.73
			c-0.541,0.178-1.082,0.303-1.623,0.375c-0.541,0.07-1.065,0.104-1.575,0.104c-0.869,0-1.646-0.112-2.336-0.339
			c-0.69-0.226-1.277-0.562-1.765-1.007c-0.488-0.446-0.863-0.999-1.123-1.657c-0.263-0.659-0.394-1.43-0.394-2.309
			c0-0.986,0.151-1.851,0.455-2.594c0.303-0.742,0.722-1.381,1.256-1.916c0.535-0.534,1.17-0.978,1.906-1.328
			c0.737-0.351,1.543-0.626,2.416-0.828s1.797-0.345,2.771-0.428s1.967-0.125,2.978-0.125v-0.695c0-0.629-0.091-1.17-0.269-1.621
			c-0.179-0.452-0.425-0.82-0.74-1.104c-0.313-0.285-0.69-0.496-1.131-0.634c-0.438-0.137-0.929-0.205-1.461-0.205
			c-0.453,0-0.881,0.039-1.283,0.115c-0.403,0.078-0.812,0.215-1.223,0.41c-0.408,0.197-0.835,0.458-1.273,0.785
			c-0.438,0.326-0.928,0.746-1.461,1.256L128.281,8.936z M139.566,15.513c-1.381,0.061-2.512,0.208-3.396,0.445
			c-0.889,0.238-1.59,0.55-2.104,0.936c-0.519,0.388-0.878,0.839-1.078,1.355c-0.203,0.516-0.306,1.084-0.306,1.701
			c0,0.522,0.062,0.957,0.181,1.301c0.116,0.346,0.287,0.625,0.508,0.838c0.22,0.215,0.483,0.365,0.793,0.455
			c0.31,0.089,0.646,0.134,1.017,0.134c0.332,0,0.674-0.019,1.024-0.054s0.709-0.104,1.078-0.205
			c0.367-0.101,0.742-0.24,1.123-0.419c0.379-0.179,0.767-0.403,1.157-0.677v-5.811H139.566z"/>
		<path fill="#1E437B" d="M153.057,6.317c0.084,0.512,0.154,0.975,0.215,1.391c1.234-0.606,2.287-1.04,3.154-1.301
			c0.867-0.263,1.738-0.394,2.619-0.394c2.436,0,4.311,0.886,5.621,2.656c1.314,1.771,1.973,4.164,1.973,7.182
			c0,2.854-0.725,5.238-2.166,7.156c-1.441,1.92-3.354,2.879-5.729,2.879c-1.33,0-2.436-0.149-3.309-0.455
			c-0.873-0.303-1.568-0.662-2.094-1.078v9.287h-2.814V9.151c-0.023-0.809-0.076-1.752-0.16-2.834H153.057z M158.406,8.42
			c-0.881,0-1.719,0.102-2.516,0.303c-0.797,0.202-1.646,0.554-2.549,1.053v12.103c0.484,0.463,1.164,0.844,2.029,1.141
			c0.867,0.298,1.881,0.445,3.031,0.445c1.758,0,3.076-0.719,3.957-2.156c0.879-1.438,1.318-3.286,1.318-5.543
			c0-2.364-0.469-4.18-1.408-5.444C161.33,9.054,160.043,8.42,158.406,8.42z"/>
		<path fill="#1E437B" d="M171.344-2.364h2.814V7.796c0.643-0.38,1.488-0.771,2.539-1.177c1.055-0.403,2.242-0.605,3.574-0.605
			c2.021,0,3.566,0.582,4.643,1.746c1.076,1.165,1.613,2.739,1.613,4.725v13.083h-2.814l0.02-12.923c0-1.366-0.34-2.431-1.018-3.19
			c-0.68-0.76-1.732-1.142-3.172-1.142c-0.904,0-1.83,0.154-2.781,0.465c-0.951,0.31-1.816,0.671-2.604,1.087v15.703h-2.814V-2.364
			L171.344-2.364z"/>
		<path fill="#1E437B" d="M191.984,8.705c0.438-0.404,0.953-0.772,1.543-1.105c0.588-0.332,1.211-0.616,1.869-0.854
			c0.66-0.237,1.344-0.418,2.051-0.543s1.412-0.188,2.111-0.188c1.975,0,3.541,0.493,4.705,1.479s1.746,2.358,1.746,4.118v8.572
			c0,0.701,0.021,1.277,0.07,1.729c0.049,0.451,0.135,0.809,0.26,1.069c0.125,0.262,0.291,0.441,0.5,0.544
			c0.207,0.101,0.473,0.15,0.793,0.15c0.402,0,0.812-0.042,1.229-0.125l0.446,1.302c-0.321,0.31-0.774,0.56-1.364,0.748
			c-0.589,0.189-1.222,0.285-1.896,0.285c-0.75,0-1.354-0.266-1.812-0.793c-0.457-0.528-0.75-1.286-0.882-2.271
			c-1.012,0.938-2.112,1.685-3.307,2.236c-1.195,0.554-2.476,0.828-3.843,0.828c-0.748,0-1.444-0.108-2.094-0.33
			c-0.647-0.219-1.209-0.537-1.685-0.953c-0.478-0.416-0.849-0.927-1.115-1.532c-0.268-0.605-0.399-1.295-0.399-2.067
			c0-1.034,0.199-1.931,0.599-2.691c0.396-0.761,0.924-1.406,1.576-1.941c0.653-0.535,1.405-0.969,2.256-1.301
			c0.851-0.333,1.729-0.596,2.638-0.785c0.909-0.189,1.813-0.317,2.719-0.383c0.901-0.064,1.733-0.099,2.494-0.099v-1.979
			c0-1.26-0.326-2.175-0.979-2.745c-0.654-0.57-1.568-0.855-2.746-0.855c-0.666,0-1.285,0.077-1.859,0.231
			c-0.578,0.154-1.115,0.352-1.613,0.588c-0.5,0.238-0.957,0.5-1.373,0.785s-0.791,0.559-1.123,0.819L191.984,8.705z
			 M203.195,15.478c-1.615,0.035-3.008,0.182-4.17,0.437c-1.164,0.256-2.121,0.604-2.869,1.043
			c-0.748,0.438-1.303,0.957-1.658,1.551s-0.535,1.248-0.535,1.961c0,1.01,0.285,1.752,0.855,2.229
			c0.568,0.476,1.359,0.713,2.369,0.713c0.549,0,1.092-0.061,1.633-0.18c0.541-0.117,1.064-0.277,1.578-0.479
			c0.51-0.202,1-0.443,1.471-0.723c0.469-0.278,0.91-0.578,1.326-0.899V15.478L203.195,15.478z"/>
		<path fill="#1E437B" d="M213.229,20.914c0.811,0.879,1.643,1.562,2.496,2.05s1.932,0.73,3.227,0.73
			c1.309,0,2.383-0.276,3.227-0.829c0.844-0.554,1.266-1.311,1.266-2.271c0-0.666-0.213-1.239-0.641-1.721
			c-0.428-0.48-1.291-0.953-2.586-1.417c-0.486-0.166-1.443-0.493-2.869-0.979c-1.342-0.356-2.602-0.963-3.779-1.817
			c-1.176-0.855-1.764-2.068-1.764-3.638c0-1.495,0.635-2.704,1.908-3.627c1.27-0.92,2.916-1.381,4.936-1.381
			c0.713,0,1.375,0.039,1.988,0.115c0.611,0.078,1.188,0.205,1.729,0.384c0.541,0.18,1.052,0.409,1.533,0.694
			c0.48,0.285,0.947,0.643,1.398,1.07l-1.621,1.941c-0.809-0.7-1.596-1.212-2.361-1.532c-0.768-0.32-1.645-0.48-2.629-0.48
			c-1.213,0-2.215,0.226-3.004,0.677c-0.791,0.452-1.186,1.111-1.186,1.979c0,0.832,0.369,1.494,1.104,1.986
			c0.736,0.493,1.609,0.89,2.619,1.187c0.535,0.167,1.062,0.339,1.586,0.517s1.055,0.353,1.588,0.519
			c1.688,0.604,2.898,1.317,3.637,2.139c0.734,0.819,1.104,1.895,1.104,3.226c0,1.664-0.686,2.989-2.049,3.977
			c-1.367,0.986-3.057,1.479-5.062,1.479c-1.568,0-2.955-0.198-4.162-0.598c-1.205-0.397-2.373-1.179-3.502-2.344L213.229,20.914z"
			/>
		<path fill="#1E437B" d="M245.971,22.126c-0.844,1.117-1.869,2.021-3.074,2.718c-1.205,0.695-2.781,1.043-4.73,1.043
			c-2.521,0-4.545-0.895-6.078-2.683s-2.299-4.311-2.299-7.565c0-2.84,0.695-5.153,2.086-6.942c1.389-1.787,3.428-2.683,6.113-2.683
			c2.27,0,4.062,0.623,5.383,1.871c1.316,1.248,2.061,2.988,2.227,5.224c0.072,0.844,0.09,1.729,0.055,2.655h-12.904
			c0,2.127,0.486,3.953,1.462,5.48c0.976,1.525,2.306,2.29,3.991,2.29c1.227,0,2.293-0.255,3.209-0.768
			c0.914-0.511,1.76-1.271,2.531-2.28L245.971,22.126z M237.949,8.223c-1.674,0-2.938,0.573-3.795,1.721
			c-0.855,1.146-1.313,2.444-1.373,3.895h10c-0.049-1.533-0.429-2.852-1.144-3.957C240.926,8.777,239.699,8.223,237.949,8.223z"/>
	</g>
</g>
</svg>
